<?xml version="1.0" encoding="UTF-8"?>
<svg id="uuid-0542fcb3-1d35-47ff-a204-7fdde18f6c50" data-name="MageRocket" xmlns="http://www.w3.org/2000/svg" width="41.01mm" height="7.67mm" viewBox="0 0 1158.26 216">
  <g id="uuid-e4f160d2-8f40-4680-9a58-589be09806e2" data-name="rocket">
    <path d="M614.26,88.86c-8.53.27-16.07,2.23-22.6,5.9-6.53,3.67-11.27,8.9-14.2,15.7v64h-22v-104.6h20.4v23.4c3.73-7.2,8.5-13.07,14.3-17.6,5.8-4.53,11.97-6.8,18.5-6.8h3.3c.87,0,1.63.07,2.3.2v19.8Z" style="stroke-width: 0px;"/>
    <path d="M754.26,122.06c0-7.33,1.27-14.27,3.8-20.8,2.53-6.53,6.17-12.27,10.9-17.2,4.73-4.93,10.43-8.83,17.1-11.7,6.67-2.87,14.13-4.3,22.4-4.3,10.8,0,20.1,2.37,27.9,7.1,7.8,4.73,13.63,11.03,17.5,18.9l-21.4,6.8c-2.53-4.4-5.93-7.83-10.2-10.3-4.27-2.47-9-3.7-14.2-3.7-4.4,0-8.5.87-12.3,2.6-3.8,1.73-7.1,4.17-9.9,7.3-2.8,3.13-5,6.83-6.6,11.1-1.6,4.27-2.4,9-2.4,14.2s.83,9.77,2.5,14.1c1.67,4.33,3.93,8.1,6.8,11.3,2.87,3.2,6.2,5.7,10,7.5,3.8,1.8,7.83,2.7,12.1,2.7,2.67,0,5.33-.37,8-1.1,2.67-.73,5.1-1.77,7.3-3.1,2.2-1.33,4.13-2.87,5.8-4.6,1.67-1.73,2.9-3.6,3.7-5.6l21.6,6.4c-3.47,7.87-9.27,14.3-17.4,19.3-8.13,5-17.73,7.5-28.8,7.5-8.13,0-15.53-1.47-22.2-4.4-6.67-2.93-12.37-6.9-17.1-11.9-4.73-5-8.4-10.77-11-17.3-2.6-6.53-3.9-13.47-3.9-20.8Z" style="stroke-width: 0px;"/>
    <path d="M945.26,174.46l-33.4-48.2-17.4,16.4v31.8h-22V28.46h22v92.6l48.2-51h23.8l-40.4,43.8,42.8,60.6h-23.6Z" style="stroke-width: 0px;"/>
    <path d="M1029.46,176.46c-8.13,0-15.53-1.43-22.2-4.3-6.67-2.87-12.37-6.77-17.1-11.7-4.73-4.93-8.4-10.67-11-17.2-2.6-6.53-3.9-13.47-3.9-20.8s1.3-14.3,3.9-20.9c2.6-6.6,6.27-12.4,11-17.4,4.73-5,10.43-8.93,17.1-11.8,6.67-2.87,14.13-4.3,22.4-4.3s15.5,1.47,22.1,4.4c6.6,2.93,12.23,6.83,16.9,11.7,4.67,4.87,8.23,10.53,10.7,17,2.47,6.47,3.7,13.23,3.7,20.3,0,1.6-.07,3.1-.2,4.5-.13,1.4-.27,2.57-.4,3.5h-83.8c.4,4.67,1.5,8.87,3.3,12.6,1.8,3.73,4.13,6.97,7,9.7,2.87,2.73,6.13,4.83,9.8,6.3,3.67,1.47,7.5,2.2,11.5,2.2,2.93,0,5.83-.37,8.7-1.1,2.87-.73,5.5-1.8,7.9-3.2s4.53-3.1,6.4-5.1c1.87-2,3.33-4.2,4.4-6.6l18.8,5.4c-3.6,7.87-9.57,14.3-17.9,19.3-8.33,5-18.03,7.5-29.1,7.5ZM1061.26,114.26c-.4-4.4-1.5-8.47-3.3-12.2-1.8-3.73-4.1-6.9-6.9-9.5-2.8-2.6-6.07-4.63-9.8-6.1-3.73-1.47-7.67-2.2-11.8-2.2s-8.03.73-11.7,2.2c-3.67,1.47-6.9,3.5-9.7,6.1-2.8,2.6-5.07,5.77-6.8,9.5-1.73,3.73-2.8,7.8-3.2,12.2h63.2Z" style="stroke-width: 0px;"/>
    <path d="M1158.26,169.06c-2.93,1.33-6.83,2.83-11.7,4.5-4.87,1.67-10.17,2.5-15.9,2.5-3.47,0-6.7-.47-9.7-1.4-3-.93-5.67-2.33-8-4.2-2.33-1.87-4.17-4.3-5.5-7.3-1.33-3-2-6.63-2-10.9v-65.4h-14v-17h14v-34.4h22v34.4h22.8v17h-22.8v58.4c0,3.73,1.07,6.43,3.2,8.1,2.13,1.67,4.73,2.5,7.8,2.5s6-.53,8.8-1.6c2.8-1.07,4.87-1.93,6.2-2.6l4.8,17.4Z" style="stroke-width: 0px;"/>
  </g>
  <g id="uuid-04518328-c27c-4e1b-b610-4ca2d42f0320" data-name="LetraObject">
    <path d="M736.56,98.66c-1.59-3.95-3.58-7.62-5.95-11.05-2.86,6.34-6.9,12.86-12.14,19.56,1.19,3.79,1.79,7.69,1.79,11.7,0,4.8-.83,9.5-2.5,14.1-1.67,4.6-4.1,8.7-7.3,12.3-3.2,3.6-7.1,6.53-11.7,8.8-4.6,2.27-9.9,3.4-15.9,3.4s-11.1-1.07-15.7-3.2c-4.6-2.13-8.57-5-11.9-8.6-3.33-3.6-5.87-7.7-7.6-12.3-1.73-4.6-2.6-9.37-2.6-14.3,0-4.67.87-9.3,2.6-13.9,1.73-4.6,4.2-8.7,7.4-12.3,3.2-3.6,7.13-6.53,11.8-8.8,3.14-1.53,6.56-2.53,10.25-3.02,3.21-6.92,6.8-12.91,10.75-17.98-1.57-.12-3.17-.19-4.8-.19-8.4,0-16.13,1.53-23.2,4.6-7.07,3.07-13.2,7.2-18.4,12.4-5.2,5.2-9.27,11.17-12.2,17.9-2.93,6.73-4.4,13.77-4.4,21.1s1.4,14.17,4.2,20.9c2.8,6.73,6.73,12.73,11.8,18,5.07,5.27,11.13,9.5,18.2,12.7,7.07,3.2,14.93,4.8,23.6,4.8s16.13-1.53,23.2-4.6c7.07-3.07,13.2-7.2,18.4-12.4,5.2-5.2,9.23-11.17,12.1-17.9,2.87-6.73,4.3-13.77,4.3-21.1,0-6.93-1.37-13.8-4.1-20.6Z" style="stroke-width: 0px;"/>
  </g>
  <g id="uuid-12eab9ef-64d4-4388-a473-2552767337f5" data-name="RocketObject">
    <path d="M652.73,107.55c9.83-2.62,19.72-1.9,28.5,1.51l-3.14,3.27-23,26.01.2.33c2.49,4.19,5.63,7.66,10.02,9.83,4.52,2.16,10.22,3.14,15.59,3.47l11.53-31.31,1.25-4.39c7.34,5.9,12.91,14.09,15.59,23.91,7.66-9.96,9.24-20.77,4.78-32.43,18.21-23.26,22.21-43.96,12.05-62.04-20.77.26-36.62,14.09-47.69,41.47-12.32,1.9-20.9,8.71-25.68,20.38h0ZM710.97,71.91c4.39,2.49,5.83,8.06,3.34,12.38-2.49,4.32-8.06,5.83-12.38,3.34-4.39-2.55-5.83-8.06-3.34-12.45,2.49-4.32,8.06-5.83,12.38-3.27h0Z" style="fill: #e65d22; fill-rule: evenodd; stroke-width: 0px;"/>
  </g>
  <g id="uuid-724e0b8c-4c9b-4fcf-9e17-b644aaebf3bc" data-name="mage">
    <text transform="translate(0 171)" style="fill: #e65d22; font-family: Raleway-Medium, Raleway; font-size: 200px; font-weight: 500;"><tspan x="0" y="0">mage</tspan></text>
  </g>
</svg>